<mxfile host="app.diagrams.net" agent="Mozilla/5.0 (Windows NT 10.0; Win64; x64; rv:131.0) Gecko/20100101 Firefox/131.0" version="24.7.17">
  <diagram name="Сторінка-1" id="4ML0UwI4rdcP3_ajBLoc">
    <mxGraphModel dx="2049" dy="1106" grid="1" gridSize="10" guides="1" tooltips="1" connect="1" arrows="1" fold="1" page="1" pageScale="1" pageWidth="1169" pageHeight="827" math="0" shadow="0">
      <root>
        <mxCell id="0" />
        <mxCell id="1" parent="0" />
        <mxCell id="88VU-KjxZsYN1MIjH_vX-5" value="&lt;font face=&quot;Times New Roman&quot; style=&quot;font-size: 18px;&quot;&gt;Start&lt;/font&gt;" style="rounded=1;whiteSpace=wrap;html=1;" vertex="1" parent="1">
          <mxGeometry x="160" y="130" width="120" height="60" as="geometry" />
        </mxCell>
        <mxCell id="88VU-KjxZsYN1MIjH_vX-6" value="&lt;font face=&quot;Times New Roman&quot; style=&quot;font-size: 18px;&quot;&gt;Start&lt;/font&gt;" style="rounded=1;whiteSpace=wrap;html=1;" vertex="1" parent="1">
          <mxGeometry x="500" y="130" width="120" height="60" as="geometry" />
        </mxCell>
        <mxCell id="88VU-KjxZsYN1MIjH_vX-7" value="&lt;font face=&quot;Times New Roman&quot; style=&quot;font-size: 18px;&quot;&gt;Start&lt;/font&gt;" style="rounded=1;whiteSpace=wrap;html=1;" vertex="1" parent="1">
          <mxGeometry x="930" y="130" width="120" height="60" as="geometry" />
        </mxCell>
        <mxCell id="88VU-KjxZsYN1MIjH_vX-10" value="&lt;font face=&quot;Times New Roman&quot; style=&quot;font-size: 18px;&quot;&gt;End&lt;/font&gt;" style="rounded=1;whiteSpace=wrap;html=1;" vertex="1" parent="1">
          <mxGeometry x="500" y="550" width="120" height="60" as="geometry" />
        </mxCell>
        <mxCell id="88VU-KjxZsYN1MIjH_vX-11" value="&lt;font face=&quot;Times New Roman&quot; style=&quot;font-size: 18px;&quot;&gt;End&lt;/font&gt;" style="rounded=1;whiteSpace=wrap;html=1;" vertex="1" parent="1">
          <mxGeometry x="935" y="720" width="120" height="60" as="geometry" />
        </mxCell>
        <mxCell id="88VU-KjxZsYN1MIjH_vX-12" value="&lt;font face=&quot;Times New Roman&quot; style=&quot;font-size: 18px;&quot;&gt;End&lt;/font&gt;" style="rounded=1;whiteSpace=wrap;html=1;" vertex="1" parent="1">
          <mxGeometry x="160" y="740" width="120" height="60" as="geometry" />
        </mxCell>
        <mxCell id="88VU-KjxZsYN1MIjH_vX-13" value="&lt;font style=&quot;font-size: 17px;&quot; face=&quot;Times New Roman&quot;&gt;n&amp;lt;=1&lt;/font&gt;" style="rhombus;whiteSpace=wrap;html=1;" vertex="1" parent="1">
          <mxGeometry x="495" y="240" width="130" height="90" as="geometry" />
        </mxCell>
        <mxCell id="88VU-KjxZsYN1MIjH_vX-14" value="&lt;font style=&quot;font-size: 17px;&quot; face=&quot;Times New Roman&quot;&gt;n&amp;lt;=1&lt;/font&gt;" style="rhombus;whiteSpace=wrap;html=1;" vertex="1" parent="1">
          <mxGeometry x="155" y="240" width="130" height="90" as="geometry" />
        </mxCell>
        <mxCell id="88VU-KjxZsYN1MIjH_vX-15" value="&lt;font style=&quot;font-size: 17px;&quot; face=&quot;Times New Roman&quot;&gt;n&amp;lt;=1&lt;/font&gt;" style="rhombus;whiteSpace=wrap;html=1;" vertex="1" parent="1">
          <mxGeometry x="925" y="240" width="130" height="90" as="geometry" />
        </mxCell>
        <mxCell id="88VU-KjxZsYN1MIjH_vX-18" value="" style="endArrow=classic;html=1;rounded=0;exitX=0.5;exitY=1;exitDx=0;exitDy=0;entryX=0.5;entryY=0;entryDx=0;entryDy=0;" edge="1" parent="1" source="88VU-KjxZsYN1MIjH_vX-6" target="88VU-KjxZsYN1MIjH_vX-13">
          <mxGeometry width="50" height="50" relative="1" as="geometry">
            <mxPoint x="530" y="360" as="sourcePoint" />
            <mxPoint x="590" y="390" as="targetPoint" />
          </mxGeometry>
        </mxCell>
        <mxCell id="88VU-KjxZsYN1MIjH_vX-19" value="" style="endArrow=classic;html=1;rounded=0;exitX=0.5;exitY=1;exitDx=0;exitDy=0;entryX=0.5;entryY=0;entryDx=0;entryDy=0;" edge="1" parent="1">
          <mxGeometry width="50" height="50" relative="1" as="geometry">
            <mxPoint x="219.66000000000003" y="190" as="sourcePoint" />
            <mxPoint x="219.66000000000003" y="240" as="targetPoint" />
          </mxGeometry>
        </mxCell>
        <mxCell id="88VU-KjxZsYN1MIjH_vX-21" value="" style="endArrow=classic;html=1;rounded=0;exitX=1;exitY=0.5;exitDx=0;exitDy=0;entryX=1;entryY=0.5;entryDx=0;entryDy=0;" edge="1" parent="1" source="88VU-KjxZsYN1MIjH_vX-13" target="88VU-KjxZsYN1MIjH_vX-10">
          <mxGeometry width="50" height="50" relative="1" as="geometry">
            <mxPoint x="625" y="290" as="sourcePoint" />
            <mxPoint x="670" y="600" as="targetPoint" />
            <Array as="points">
              <mxPoint x="670" y="285" />
              <mxPoint x="670" y="580" />
            </Array>
          </mxGeometry>
        </mxCell>
        <mxCell id="88VU-KjxZsYN1MIjH_vX-22" value="&lt;div style=&quot;font-size: 13px;&quot;&gt;&lt;font style=&quot;font-size: 13px;&quot; face=&quot;Times New Roman&quot;&gt;return&amp;nbsp;&lt;/font&gt;&lt;/div&gt;&lt;div style=&quot;font-size: 13px;&quot;&gt;&lt;font style=&quot;font-size: 13px;&quot; face=&quot;wUfVUpXQw_oo1KSJjkkP&quot;&gt;calculateByRecursion(n - 1) + calculateByRecursion(n - 2);&lt;/font&gt;&lt;/div&gt;" style="rounded=0;whiteSpace=wrap;html=1;" vertex="1" parent="1">
          <mxGeometry x="475" y="380" width="170" height="90" as="geometry" />
        </mxCell>
        <mxCell id="88VU-KjxZsYN1MIjH_vX-23" value="" style="endArrow=classic;html=1;rounded=0;entryX=0;entryY=0.5;entryDx=0;entryDy=0;exitX=0;exitY=0.5;exitDx=0;exitDy=0;" edge="1" parent="1" source="88VU-KjxZsYN1MIjH_vX-13" target="88VU-KjxZsYN1MIjH_vX-22">
          <mxGeometry width="50" height="50" relative="1" as="geometry">
            <mxPoint x="430" y="425" as="sourcePoint" />
            <mxPoint x="530" y="420" as="targetPoint" />
            <Array as="points">
              <mxPoint x="430" y="285" />
              <mxPoint x="430" y="425" />
            </Array>
          </mxGeometry>
        </mxCell>
        <mxCell id="88VU-KjxZsYN1MIjH_vX-24" value="" style="endArrow=classic;html=1;rounded=0;entryX=0.5;entryY=0;entryDx=0;entryDy=0;exitX=0.5;exitY=1;exitDx=0;exitDy=0;" edge="1" parent="1" source="88VU-KjxZsYN1MIjH_vX-22" target="88VU-KjxZsYN1MIjH_vX-10">
          <mxGeometry width="50" height="50" relative="1" as="geometry">
            <mxPoint x="480" y="470" as="sourcePoint" />
            <mxPoint x="530" y="420" as="targetPoint" />
          </mxGeometry>
        </mxCell>
        <mxCell id="88VU-KjxZsYN1MIjH_vX-25" value="&lt;font style=&quot;font-size: 16px;&quot; face=&quot;Times New Roman&quot;&gt;True&lt;/font&gt;" style="text;html=1;align=center;verticalAlign=middle;resizable=0;points=[];autosize=1;strokeColor=none;fillColor=none;" vertex="1" parent="1">
          <mxGeometry x="620" y="260" width="50" height="30" as="geometry" />
        </mxCell>
        <mxCell id="88VU-KjxZsYN1MIjH_vX-26" value="&lt;font style=&quot;font-size: 16px;&quot; face=&quot;Times New Roman&quot;&gt;False&lt;/font&gt;" style="text;html=1;align=center;verticalAlign=middle;resizable=0;points=[];autosize=1;strokeColor=none;fillColor=none;" vertex="1" parent="1">
          <mxGeometry x="435" y="260" width="60" height="30" as="geometry" />
        </mxCell>
        <mxCell id="88VU-KjxZsYN1MIjH_vX-27" value="&lt;font style=&quot;font-size: 18px;&quot; face=&quot;Times New Roman&quot;&gt;calculateByRecursion(int n)&lt;/font&gt;" style="text;html=1;align=center;verticalAlign=middle;resizable=0;points=[];autosize=1;strokeColor=none;fillColor=none;" vertex="1" parent="1">
          <mxGeometry x="445" y="90" width="230" height="40" as="geometry" />
        </mxCell>
        <mxCell id="88VU-KjxZsYN1MIjH_vX-28" value="" style="endArrow=classic;html=1;rounded=0;exitX=1;exitY=0.5;exitDx=0;exitDy=0;entryX=1;entryY=0.5;entryDx=0;entryDy=0;" edge="1" parent="1" source="88VU-KjxZsYN1MIjH_vX-14" target="88VU-KjxZsYN1MIjH_vX-12">
          <mxGeometry width="50" height="50" relative="1" as="geometry">
            <mxPoint x="540" y="490" as="sourcePoint" />
            <mxPoint x="590" y="440" as="targetPoint" />
            <Array as="points">
              <mxPoint x="330" y="285" />
              <mxPoint x="330" y="770" />
            </Array>
          </mxGeometry>
        </mxCell>
        <mxCell id="88VU-KjxZsYN1MIjH_vX-29" value="&lt;font style=&quot;font-size: 16px;&quot; face=&quot;Times New Roman&quot;&gt;True&lt;/font&gt;" style="text;html=1;align=center;verticalAlign=middle;resizable=0;points=[];autosize=1;strokeColor=none;fillColor=none;" vertex="1" parent="1">
          <mxGeometry x="280" y="260" width="50" height="30" as="geometry" />
        </mxCell>
        <mxCell id="88VU-KjxZsYN1MIjH_vX-30" value="" style="endArrow=classic;html=1;rounded=0;exitX=0;exitY=0.5;exitDx=0;exitDy=0;entryX=0;entryY=0.5;entryDx=0;entryDy=0;" edge="1" parent="1" source="88VU-KjxZsYN1MIjH_vX-14" target="88VU-KjxZsYN1MIjH_vX-32">
          <mxGeometry width="50" height="50" relative="1" as="geometry">
            <mxPoint x="340" y="530" as="sourcePoint" />
            <mxPoint x="90" y="420" as="targetPoint" />
            <Array as="points">
              <mxPoint x="90" y="285" />
              <mxPoint x="90" y="400" />
            </Array>
          </mxGeometry>
        </mxCell>
        <mxCell id="88VU-KjxZsYN1MIjH_vX-32" value="&lt;font face=&quot;Times New Roman&quot; style=&quot;font-size: 14px;&quot;&gt;Initializing:&lt;br&gt;n1=0; n2=1;&lt;br&gt;sum=0&lt;/font&gt;&lt;font face=&quot;8MhJQosoheovth_iMCDC&quot; style=&quot;font-size: 14px;&quot;&gt;;&lt;/font&gt;&lt;font face=&quot;Times New Roman&quot; style=&quot;font-size: 14px;&quot;&gt; i=2;&lt;/font&gt;" style="rounded=0;whiteSpace=wrap;html=1;" vertex="1" parent="1">
          <mxGeometry x="160" y="370" width="120" height="60" as="geometry" />
        </mxCell>
        <mxCell id="88VU-KjxZsYN1MIjH_vX-33" value="&lt;font style=&quot;font-size: 16px;&quot; face=&quot;Times New Roman&quot;&gt;False&lt;/font&gt;" style="text;html=1;align=center;verticalAlign=middle;resizable=0;points=[];autosize=1;strokeColor=none;fillColor=none;" vertex="1" parent="1">
          <mxGeometry x="95" y="260" width="60" height="30" as="geometry" />
        </mxCell>
        <mxCell id="88VU-KjxZsYN1MIjH_vX-34" value="&lt;font face=&quot;Times New Roman&quot; style=&quot;font-size: 14px;&quot;&gt;return sum&lt;/font&gt;" style="rounded=0;whiteSpace=wrap;html=1;" vertex="1" parent="1">
          <mxGeometry x="172.5" y="660" width="95" height="50" as="geometry" />
        </mxCell>
        <mxCell id="88VU-KjxZsYN1MIjH_vX-35" value="&lt;font style=&quot;font-size: 17px;&quot; face=&quot;Times New Roman&quot;&gt;i&amp;lt;=n&lt;br&gt;&lt;/font&gt;" style="rhombus;whiteSpace=wrap;html=1;" vertex="1" parent="1">
          <mxGeometry x="169.44" y="460" width="101.11" height="70" as="geometry" />
        </mxCell>
        <mxCell id="88VU-KjxZsYN1MIjH_vX-36" value="" style="endArrow=classic;html=1;rounded=0;entryX=0.5;entryY=0;entryDx=0;entryDy=0;exitX=0.5;exitY=1;exitDx=0;exitDy=0;" edge="1" parent="1" source="88VU-KjxZsYN1MIjH_vX-32" target="88VU-KjxZsYN1MIjH_vX-35">
          <mxGeometry width="50" height="50" relative="1" as="geometry">
            <mxPoint x="340" y="540" as="sourcePoint" />
            <mxPoint x="390" y="490" as="targetPoint" />
          </mxGeometry>
        </mxCell>
        <mxCell id="88VU-KjxZsYN1MIjH_vX-37" value="" style="endArrow=classic;html=1;rounded=0;exitX=0;exitY=0.5;exitDx=0;exitDy=0;entryX=0;entryY=0.5;entryDx=0;entryDy=0;" edge="1" parent="1" source="88VU-KjxZsYN1MIjH_vX-35" target="88VU-KjxZsYN1MIjH_vX-34">
          <mxGeometry width="50" height="50" relative="1" as="geometry">
            <mxPoint x="340" y="540" as="sourcePoint" />
            <mxPoint x="169" y="680" as="targetPoint" />
            <Array as="points">
              <mxPoint x="110" y="495" />
              <mxPoint x="110" y="685" />
            </Array>
          </mxGeometry>
        </mxCell>
        <mxCell id="88VU-KjxZsYN1MIjH_vX-38" value="&lt;font style=&quot;font-size: 16px;&quot; face=&quot;Times New Roman&quot;&gt;False&lt;/font&gt;" style="text;html=1;align=center;verticalAlign=middle;resizable=0;points=[];autosize=1;strokeColor=none;fillColor=none;" vertex="1" parent="1">
          <mxGeometry x="112.5" y="470" width="60" height="30" as="geometry" />
        </mxCell>
        <mxCell id="88VU-KjxZsYN1MIjH_vX-39" value="" style="endArrow=classic;html=1;rounded=0;exitX=1;exitY=0.5;exitDx=0;exitDy=0;entryX=1;entryY=0.5;entryDx=0;entryDy=0;" edge="1" parent="1" source="88VU-KjxZsYN1MIjH_vX-35" target="88VU-KjxZsYN1MIjH_vX-40">
          <mxGeometry width="50" height="50" relative="1" as="geometry">
            <mxPoint x="340" y="520" as="sourcePoint" />
            <mxPoint x="300" y="590" as="targetPoint" />
            <Array as="points">
              <mxPoint x="300" y="495" />
              <mxPoint x="300" y="590" />
            </Array>
          </mxGeometry>
        </mxCell>
        <mxCell id="88VU-KjxZsYN1MIjH_vX-40" value="&lt;div align=&quot;center&quot;&gt;&lt;font face=&quot;Times New Roman&quot; style=&quot;font-size: 14px;&quot;&gt;sum = n1 + n2;&lt;/font&gt;&lt;/div&gt;&lt;div align=&quot;center&quot;&gt;&lt;font face=&quot;Times New Roman&quot; style=&quot;font-size: 14px;&quot;&gt;n1 = n2;&lt;/font&gt;&lt;font face=&quot;Times New Roman&quot; style=&quot;font-size: 14px;&quot;&gt;&lt;br&gt;&lt;/font&gt;&lt;/div&gt;&lt;div align=&quot;center&quot;&gt;&lt;font face=&quot;Times New Roman&quot; style=&quot;font-size: 14px;&quot;&gt;n2 = sum;&lt;/font&gt;&lt;br&gt;&lt;/div&gt;" style="rounded=0;whiteSpace=wrap;html=1;" vertex="1" parent="1">
          <mxGeometry x="172.5" y="560" width="95" height="60" as="geometry" />
        </mxCell>
        <mxCell id="88VU-KjxZsYN1MIjH_vX-41" value="&lt;font style=&quot;font-size: 16px;&quot; face=&quot;Times New Roman&quot;&gt;True&lt;/font&gt;" style="text;html=1;align=center;verticalAlign=middle;resizable=0;points=[];autosize=1;strokeColor=none;fillColor=none;" vertex="1" parent="1">
          <mxGeometry x="260" y="470" width="50" height="30" as="geometry" />
        </mxCell>
        <mxCell id="88VU-KjxZsYN1MIjH_vX-42" value="" style="endArrow=classic;html=1;rounded=0;exitX=0;exitY=0.5;exitDx=0;exitDy=0;" edge="1" parent="1" source="88VU-KjxZsYN1MIjH_vX-40">
          <mxGeometry width="50" height="50" relative="1" as="geometry">
            <mxPoint x="340" y="520" as="sourcePoint" />
            <mxPoint x="220" y="440" as="targetPoint" />
            <Array as="points">
              <mxPoint x="140" y="590" />
              <mxPoint x="140" y="440" />
            </Array>
          </mxGeometry>
        </mxCell>
        <mxCell id="88VU-KjxZsYN1MIjH_vX-43" value="" style="endArrow=classic;html=1;rounded=0;exitX=0.5;exitY=1;exitDx=0;exitDy=0;entryX=0.5;entryY=0;entryDx=0;entryDy=0;" edge="1" parent="1" source="88VU-KjxZsYN1MIjH_vX-34" target="88VU-KjxZsYN1MIjH_vX-12">
          <mxGeometry width="50" height="50" relative="1" as="geometry">
            <mxPoint x="340" y="670" as="sourcePoint" />
            <mxPoint x="390" y="620" as="targetPoint" />
          </mxGeometry>
        </mxCell>
        <mxCell id="88VU-KjxZsYN1MIjH_vX-44" value="&lt;font style=&quot;font-size: 18px;&quot; face=&quot;Times New Roman&quot;&gt;calculateByIteration(int n)&lt;/font&gt;" style="text;html=1;align=center;verticalAlign=middle;resizable=0;points=[];autosize=1;strokeColor=none;fillColor=none;" vertex="1" parent="1">
          <mxGeometry x="115" y="90" width="210" height="40" as="geometry" />
        </mxCell>
        <mxCell id="88VU-KjxZsYN1MIjH_vX-45" value="&lt;div&gt;&lt;font style=&quot;font-size: 18px;&quot; face=&quot;Times New Roman&quot;&gt;calculateByDP(int n)&lt;/font&gt;&lt;/div&gt;" style="text;html=1;align=center;verticalAlign=middle;resizable=0;points=[];autosize=1;strokeColor=none;fillColor=none;" vertex="1" parent="1">
          <mxGeometry x="900" y="90" width="180" height="40" as="geometry" />
        </mxCell>
        <mxCell id="88VU-KjxZsYN1MIjH_vX-46" value="" style="endArrow=classic;html=1;rounded=0;entryX=0.5;entryY=0;entryDx=0;entryDy=0;exitX=0.5;exitY=1;exitDx=0;exitDy=0;" edge="1" parent="1" source="88VU-KjxZsYN1MIjH_vX-7" target="88VU-KjxZsYN1MIjH_vX-15">
          <mxGeometry width="50" height="50" relative="1" as="geometry">
            <mxPoint x="860" y="340" as="sourcePoint" />
            <mxPoint x="910" y="290" as="targetPoint" />
          </mxGeometry>
        </mxCell>
        <mxCell id="88VU-KjxZsYN1MIjH_vX-47" value="" style="endArrow=classic;html=1;rounded=0;exitX=1;exitY=0.5;exitDx=0;exitDy=0;entryX=1;entryY=0.5;entryDx=0;entryDy=0;" edge="1" parent="1" source="88VU-KjxZsYN1MIjH_vX-15" target="88VU-KjxZsYN1MIjH_vX-11">
          <mxGeometry width="50" height="50" relative="1" as="geometry">
            <mxPoint x="860" y="420" as="sourcePoint" />
            <mxPoint x="1110" y="750" as="targetPoint" />
            <Array as="points">
              <mxPoint x="1110" y="285" />
              <mxPoint x="1110" y="750" />
            </Array>
          </mxGeometry>
        </mxCell>
        <mxCell id="88VU-KjxZsYN1MIjH_vX-48" value="&lt;font style=&quot;font-size: 16px;&quot; face=&quot;Times New Roman&quot;&gt;True&lt;/font&gt;" style="text;html=1;align=center;verticalAlign=middle;resizable=0;points=[];autosize=1;strokeColor=none;fillColor=none;" vertex="1" parent="1">
          <mxGeometry x="1055" y="260" width="50" height="30" as="geometry" />
        </mxCell>
        <mxCell id="88VU-KjxZsYN1MIjH_vX-49" value="" style="endArrow=classic;html=1;rounded=0;exitX=0;exitY=0.5;exitDx=0;exitDy=0;entryX=0.5;entryY=0;entryDx=0;entryDy=0;" edge="1" parent="1" source="88VU-KjxZsYN1MIjH_vX-15" target="88VU-KjxZsYN1MIjH_vX-50">
          <mxGeometry width="50" height="50" relative="1" as="geometry">
            <mxPoint x="860" y="450" as="sourcePoint" />
            <mxPoint x="880" y="370" as="targetPoint" />
            <Array as="points">
              <mxPoint x="875" y="285" />
            </Array>
          </mxGeometry>
        </mxCell>
        <mxCell id="88VU-KjxZsYN1MIjH_vX-50" value="&lt;font style=&quot;font-size: 17px;&quot; face=&quot;Times New Roman&quot;&gt;n&amp;lt;=1&lt;/font&gt;" style="rhombus;whiteSpace=wrap;html=1;" vertex="1" parent="1">
          <mxGeometry x="820" y="370" width="110" height="80" as="geometry" />
        </mxCell>
        <mxCell id="88VU-KjxZsYN1MIjH_vX-51" value="&lt;font style=&quot;font-size: 16px;&quot; face=&quot;Times New Roman&quot;&gt;False&lt;/font&gt;" style="text;html=1;align=center;verticalAlign=middle;resizable=0;points=[];autosize=1;strokeColor=none;fillColor=none;" vertex="1" parent="1">
          <mxGeometry x="870" y="260" width="60" height="30" as="geometry" />
        </mxCell>
        <mxCell id="88VU-KjxZsYN1MIjH_vX-52" value="&lt;font style=&quot;font-size: 16px;&quot; face=&quot;Times New Roman&quot;&gt;False&lt;/font&gt;" style="text;html=1;align=center;verticalAlign=middle;resizable=0;points=[];autosize=1;strokeColor=none;fillColor=none;" vertex="1" parent="1">
          <mxGeometry x="770" y="385" width="60" height="30" as="geometry" />
        </mxCell>
        <mxCell id="88VU-KjxZsYN1MIjH_vX-53" value="&lt;font style=&quot;font-size: 14px;&quot; face=&quot;Times New Roman&quot;&gt;return result&lt;/font&gt;" style="rounded=0;whiteSpace=wrap;html=1;" vertex="1" parent="1">
          <mxGeometry x="935" y="480" width="120" height="60" as="geometry" />
        </mxCell>
        <mxCell id="88VU-KjxZsYN1MIjH_vX-54" value="" style="endArrow=classic;html=1;rounded=0;exitX=1;exitY=0.5;exitDx=0;exitDy=0;entryX=0.5;entryY=0;entryDx=0;entryDy=0;" edge="1" parent="1" source="88VU-KjxZsYN1MIjH_vX-50" target="88VU-KjxZsYN1MIjH_vX-53">
          <mxGeometry width="50" height="50" relative="1" as="geometry">
            <mxPoint x="860" y="510" as="sourcePoint" />
            <mxPoint x="910" y="460" as="targetPoint" />
            <Array as="points">
              <mxPoint x="995" y="410" />
            </Array>
          </mxGeometry>
        </mxCell>
        <mxCell id="88VU-KjxZsYN1MIjH_vX-55" value="&lt;font style=&quot;font-size: 16px;&quot; face=&quot;Times New Roman&quot;&gt;True&lt;/font&gt;" style="text;html=1;align=center;verticalAlign=middle;resizable=0;points=[];autosize=1;strokeColor=none;fillColor=none;" vertex="1" parent="1">
          <mxGeometry x="935" y="385" width="50" height="30" as="geometry" />
        </mxCell>
        <mxCell id="88VU-KjxZsYN1MIjH_vX-58" value="" style="endArrow=classic;html=1;rounded=0;exitX=0.5;exitY=1;exitDx=0;exitDy=0;entryX=0.5;entryY=0;entryDx=0;entryDy=0;" edge="1" parent="1" source="88VU-KjxZsYN1MIjH_vX-53" target="88VU-KjxZsYN1MIjH_vX-11">
          <mxGeometry width="50" height="50" relative="1" as="geometry">
            <mxPoint x="860" y="550" as="sourcePoint" />
            <mxPoint x="910" y="500" as="targetPoint" />
          </mxGeometry>
        </mxCell>
        <mxCell id="88VU-KjxZsYN1MIjH_vX-59" value="&lt;font style=&quot;font-size: 12px;&quot; face=&quot;Times New Roman&quot;&gt;result = calculateByDP(n - 1) + calculateByDP(n - 2);&lt;/font&gt;" style="rounded=0;whiteSpace=wrap;html=1;" vertex="1" parent="1">
          <mxGeometry x="720" y="470" width="120" height="60" as="geometry" />
        </mxCell>
        <mxCell id="88VU-KjxZsYN1MIjH_vX-60" value="&lt;font face=&quot;Times New Roman&quot;&gt;fibonacciMemo.put(n, result);&lt;/font&gt;" style="rounded=0;whiteSpace=wrap;html=1;" vertex="1" parent="1">
          <mxGeometry x="720" y="590" width="120" height="60" as="geometry" />
        </mxCell>
        <mxCell id="88VU-KjxZsYN1MIjH_vX-61" value="&lt;font style=&quot;font-size: 14px;&quot; face=&quot;Times New Roman&quot;&gt;return result&lt;/font&gt;" style="rounded=0;whiteSpace=wrap;html=1;" vertex="1" parent="1">
          <mxGeometry x="720" y="720" width="120" height="60" as="geometry" />
        </mxCell>
        <mxCell id="88VU-KjxZsYN1MIjH_vX-62" value="" style="endArrow=classic;html=1;rounded=0;entryX=0.5;entryY=0;entryDx=0;entryDy=0;" edge="1" parent="1" target="88VU-KjxZsYN1MIjH_vX-59">
          <mxGeometry width="50" height="50" relative="1" as="geometry">
            <mxPoint x="820" y="410" as="sourcePoint" />
            <mxPoint x="910" y="500" as="targetPoint" />
            <Array as="points">
              <mxPoint x="780" y="410" />
            </Array>
          </mxGeometry>
        </mxCell>
        <mxCell id="88VU-KjxZsYN1MIjH_vX-69" value="" style="endArrow=classic;html=1;rounded=0;exitX=0.5;exitY=1;exitDx=0;exitDy=0;entryX=0.5;entryY=0;entryDx=0;entryDy=0;" edge="1" parent="1" source="88VU-KjxZsYN1MIjH_vX-59" target="88VU-KjxZsYN1MIjH_vX-60">
          <mxGeometry width="50" height="50" relative="1" as="geometry">
            <mxPoint x="860" y="650" as="sourcePoint" />
            <mxPoint x="910" y="600" as="targetPoint" />
          </mxGeometry>
        </mxCell>
        <mxCell id="88VU-KjxZsYN1MIjH_vX-70" value="" style="endArrow=classic;html=1;rounded=0;exitX=0.5;exitY=1;exitDx=0;exitDy=0;entryX=0.5;entryY=0;entryDx=0;entryDy=0;" edge="1" parent="1" source="88VU-KjxZsYN1MIjH_vX-60" target="88VU-KjxZsYN1MIjH_vX-61">
          <mxGeometry width="50" height="50" relative="1" as="geometry">
            <mxPoint x="860" y="650" as="sourcePoint" />
            <mxPoint x="910" y="600" as="targetPoint" />
          </mxGeometry>
        </mxCell>
        <mxCell id="88VU-KjxZsYN1MIjH_vX-71" value="" style="endArrow=classic;html=1;rounded=0;exitX=1;exitY=0.5;exitDx=0;exitDy=0;entryX=0;entryY=0.5;entryDx=0;entryDy=0;" edge="1" parent="1" source="88VU-KjxZsYN1MIjH_vX-61" target="88VU-KjxZsYN1MIjH_vX-11">
          <mxGeometry width="50" height="50" relative="1" as="geometry">
            <mxPoint x="860" y="650" as="sourcePoint" />
            <mxPoint x="910" y="600" as="targetPoint" />
          </mxGeometry>
        </mxCell>
      </root>
    </mxGraphModel>
  </diagram>
</mxfile>
